<svg width="403" height="280" viewBox="0 0 403 280" fill="none" xmlns="http://www.w3.org/2000/svg">
<path d="M397.466 52.8723C395.367 50.3483 392.723 48.3155 389.726 46.9214C386.729 45.5273 383.454 44.8069 380.138 44.8125H95.9989L90.2759 12.8855C89.6657 9.48473 87.8563 6.40409 85.1655 4.18474C82.4747 1.96539 79.0746 0.749274 75.5625 0.75H15.8125C11.8508 0.75 8.05142 2.29743 5.25009 5.05187C2.44877 7.80631 0.875 11.5421 0.875 15.4375C0.875 19.3329 2.44877 23.0687 5.25009 25.8231C8.05142 28.5776 11.8508 30.125 15.8125 30.125H63.0337L105.662 267.677C106.272 271.078 108.081 274.158 110.772 276.378C113.463 278.597 116.863 279.813 120.375 279.812H359.375C363.337 279.812 367.136 278.265 369.937 275.511C372.739 272.756 374.312 269.02 374.312 265.125C374.312 261.23 372.739 257.494 369.937 254.739C367.136 251.985 363.337 250.438 359.375 250.438H132.904L127.638 221.062H353.251C358.431 221.056 363.45 219.29 367.458 216.063C371.466 212.836 374.217 208.347 375.246 203.355L402.134 71.1674C402.781 67.9683 402.699 64.6676 401.892 61.5038C401.084 58.3399 399.573 55.3918 397.466 52.8723Z" fill="black"/>
</svg>
